<mxfile host="app.diagrams.net" modified="2024-07-14T15:14:36.527Z" agent="Mozilla/5.0 (X11; Ubuntu; Linux x86_64; rv:128.0) Gecko/20100101 Firefox/128.0" version="24.6.5" etag="muWXnDx4avq1p2uv5c2D" type="github">
  <diagram name="Page-1" id="cBNQExkV1IoNoWGzj9Eb">
    <mxGraphModel>
      <root>
        <mxCell id="0" />
        <mxCell id="1" parent="0" />
      </root>
    </mxGraphModel>
  </diagram>
</mxfile>
